<?xml version="1.0" encoding="UTF-8"?>
<svg width="387px" height="76px" viewBox="0 0 387 76" version="1.1" xmlns="http://www.w3.org/2000/svg" xmlns:xlink="http://www.w3.org/1999/xlink">
    <title>Group 4</title>
    <g id="Page-1" stroke="none" stroke-width="1" fill="none" fill-rule="evenodd">
        <g id="A0" transform="translate(-197, -1774)" fill-rule="nonzero">
            <g id="Group-4" transform="translate(198, 1775)">
                <g id="fresh" transform="translate(136, 0)" fill="#0A140C">
                    <path d="M14.0805,0.761269462 L14.0805,70.0893005 L0,70.0893005 L0,0.761269462 L14.0805,0.761269462 Z M35.6322,30.2257005 L35.6322,41.7803005 L10.3448,41.7803005 L10.3448,30.2257005 L35.6322,30.2257005 Z M38.5057,0.761269462 L38.5057,12.3159005 L10.3448,12.3159005 L10.3448,0.761269462 L38.5057,0.761269462 Z M46.5517,0.761269462 L68.9655,0.761269462 C73.5632,0.761269462 77.5862,1.62785046 80.7471,3.36105046 C83.908,4.80538046 86.4943,7.11632046 88.2184,10.2939005 C90.1641,13.8269005 91.1548,17.8107005 91.092,21.8485005 C91.092,25.6038005 90.5172,28.7813005 89.3678,31.3811005 C88.5057,34.2698005 87.069,36.2919005 85.0575,38.0251005 C83.046,39.7583005 81.0345,40.9137005 78.4483,42.3581005 L74.1379,44.6690005 L56.0345,44.6690005 L56.0345,33.1143005 L68.3908,33.1143005 C70.0971,33.2247005 71.7975,32.8225005 73.2759,31.9589005 C74.4253,31.0923005 75.2874,29.9368005 76.1494,28.4925005 C76.8253,26.6458005 77.1186,24.6798005 77.0115,22.7151005 C77.0115,20.6931005 76.7241,18.9599005 76.1494,17.2267005 C75.5747,15.7823005 74.7126,14.3380005 73.2759,13.7603005 C72.4138,12.8937005 70.6897,12.3159005 68.9655,12.3159005 L60.3448,12.3159005 L60.3448,70.0893005 L46.5517,70.0893005 L46.5517,0.761269462 L46.5517,0.761269462 Z M78.1609,70.0893005 L65.5172,39.1805005 L79.8851,39.1805005 L93.1035,69.5115005 L93.1035,70.0893005 L78.1609,70.0893005 Z M140.517,58.5346005 L140.517,70.0893005 L110.345,70.0893005 L110.345,58.5346005 L140.517,58.5346005 Z M114.655,0.761269462 L114.655,70.0893005 L100.575,70.0893005 L100.575,0.761269462 L114.943,0.761269462 L114.655,0.761269462 Z M136.494,29.0702005 L136.494,40.0471005 L110.345,40.0471005 L110.345,29.0702005 L136.207,29.0702005 L136.494,29.0702005 Z M140.517,0.761269462 L140.517,12.3159005 L110.345,12.3159005 L110.345,0.761269462 L140.517,0.761269462 Z M178.161,51.8907005 C178.161,50.7352005 178.161,49.5797005 177.586,48.7131005 C177.586,47.5577005 177.012,46.6911005 176.149,45.8245005 L173.276,42.9358005 L167.816,40.6249005 L160.345,37.1585005 L154.023,32.8255005 C152.021,31.2537005 150.359,29.2878005 149.138,27.0481005 C148.066,24.5949005 147.574,21.9252005 147.701,19.2487005 C147.701,16.3601005 147.989,13.4714005 149.138,11.4493005 C150.166,9.00506046 151.739,6.83084046 153.736,5.09427046 C155.747,3.64994046 158.046,2.20559046 160.632,1.33899046 C167.362,-0.855542538 174.677,-0.337716538 181.034,2.78333046 C184.483,4.51653046 186.782,7.11632046 188.793,10.2939005 C190.517,13.1825005 191.667,17.2267005 191.667,21.2708005 L177.299,21.2708005 C177.424,19.5169005 177.229,17.7548005 176.724,16.0712005 C176.149,14.6269005 175.287,13.1825005 173.851,12.6048005 C172.701,11.7382005 170.977,11.1605005 169.253,11.1605005 C167.529,11.1605005 166.092,11.7382005 164.943,12.3159005 C163.793,12.8937005 162.931,14.0491005 162.069,15.2046005 L161.494,19.2487005 C161.494,20.4042005 161.782,21.5597005 162.356,22.4263005 L164.655,24.7372005 C167.235,26.2818005 169.924,27.6335005 172.701,28.7813005 L181.034,32.8255005 C183.199,34.2594005 185.136,36.0121005 186.782,38.0251005 C188.793,39.7583005 189.655,41.7803005 190.805,43.8024005 C192.605,48.9619005 192.503,54.5998005 190.517,59.6901005 C189.368,62.0010005 187.931,64.0231005 186.207,65.7563005 C184.115,67.5878005 181.669,68.9647005 179.023,69.8004005 C173.276,71.2447005 176.149,75 170.402,75 C164.655,75 166.667,70.6670005 161.207,69.8004005 C158.333,68.9338005 155.46,67.4895005 153.448,65.7563005 C151.19,63.7856005 149.419,61.3130005 148.276,58.5346005 C147.126,55.6459005 146.552,52.1795005 146.552,48.4243005 L160.632,48.4243005 C160.632,50.4463005 160.632,52.1795005 161.207,53.6239005 C161.494,55.0682005 162.069,56.5125005 162.931,57.3791005 C163.793,57.9569005 164.943,58.8235005 166.092,59.1123005 C167.529,59.6901005 168.966,59.6901005 170.402,59.6901005 C172.414,59.6901005 173.851,59.6901005 175,58.8235005 C176.149,57.9569005 176.724,57.0903005 177.299,55.9348005 C177.874,54.7793005 178.161,53.3350005 178.161,51.8907005 L178.161,51.8907005 Z M239.943,28.7813005 L239.943,40.3360005 L211.207,40.3360005 L211.207,28.7813005 L239.943,28.7813005 Z M215.23,0.761269462 L215.23,70.0893005 L201.437,70.0893005 L201.437,0.761269462 L215.23,0.761269462 Z M250,0.761269462 L250,70.0893005 L236.207,70.0893005 L236.207,0.761269462 L250,0.761269462 Z" id="Shape"></path>
                </g>
                <g id="fresh">
                    <path d="M84.4518124,6.20028469 C97.7192937,38.6270343 84.4518124,56.0611842 73.227803,65.6735856 C75.9707183,75.285987 65.0374579,77.2688881 60.8846842,72.5395866 C48.6595107,76.7608041 23.8224127,76.623484 6.02637822,58.8075846 C-3.57382533,49.1951831 3.91433344,27.8117095 29.3411582,13.4919778 C51.2844806,1.13317593 73.227803,-5.7328251 84.4518124,6.20028469 Z" id="Path" fill="#FFDB1E"></path>
                    <path d="M28.879946,13.3970556 C47.6620816,1.00926284 70.08929,-4.17779827 79.2581976,3.83831847 C93.3338284,16.1517349 49.450334,44.0070519 32.9940236,50.585226 C15.1663539,57.7115814 24.7658683,74 15.1663539,74 C6.93819873,74 8.30955793,62.9812828 0.950844453,52.6512355 C-3.39636422,46.5496209 7.37703367,27.5781446 28.879946,13.3970556 Z" id="Path" stroke="#FFDB1E" fill="#FFFFFF"></path>
                    <path d="M67.9417006,4.99130648 C80.5255955,8.51157096 66.9528693,21.0296314 56.2843272,29.0304886 C46.1738652,36.6117301 38.3878342,40.8867393 34.819914,42.6327905 C33.8283735,43.1199951 30.4392556,36.290682 30.4392556,39.8165789 C30.4392556,40.9909391 28.5428667,46.1192604 27.908931,46.3670871 C24.2109727,47.8089874 16.4682877,50 12.101175,50 C2.64361268,50 6.89152381,36.6117301 20.2664838,24.3105179 C22.6830251,22.088527 24.2705735,22.4940615 26.4514207,22.4940615 C24.9966195,20.3171299 25.0047469,19.9115954 27.5431989,18.1401984 C38.8321311,10.2519897 52.9466827,4.98567405 58.9392716,4 C59.9308121,4.03942696 61.1607558,4.98567405 61.1607558,5.77139709 C62.2714978,5.37712746 66.8363768,4.67870699 67.9417006,4.98849027 L67.9417006,4.99130648 Z" id="Path" fill="#FFE600"></path>
                    <path d="M29,27 C31.6977063,24.9166408 33.5025676,24.1831422 34.7487162,19.9550666 C36.2988702,20.2925318 37.052037,19.7319492 38.2817528,18 C39.1691202,19.2996591 42.8199247,19.6956926 45,19.9550666 C43.0417665,21.2128912 42.105101,22.3312674 41.0232797,25.8286334 C37.0136939,24.1245739 32.3495378,24.986365 29,27 L29,27 Z" id="Path" fill="#FFFFFF"></path>
                </g>
            </g>
        </g>
    </g>
</svg>