<?xml version="1.0" encoding="UTF-8"?>
<svg width="208px" height="41px" viewBox="0 0 208 41" version="1.1" xmlns="http://www.w3.org/2000/svg" xmlns:xlink="http://www.w3.org/1999/xlink">
    <title>Group 2</title>
    <g id="Page-1" stroke="none" stroke-width="1" fill="none" fill-rule="evenodd">
        <g id="A0" transform="translate(-491, -1068)" fill-rule="nonzero">
            <g id="Group-2" transform="translate(491, 1068)">
                <g id="qwik" transform="translate(0, 0)">
                    <path d="M63.7969162,36.2644731 L58.8123893,36.2644731 L58.8123893,27.5603892 C57.1659821,28.6917784 55.3080719,29.2499222 53.3143234,29.2499222 C50.610557,29.2499222 48.6016288,28.5107126 47.3479462,26.9720419 C46.0942635,25.4484731 45.4598324,22.7331856 45.4598324,18.8563054 C45.4598324,14.8889701 46.1999761,12.143479 47.6953653,10.544479 C49.2209582,8.93037725 51.6679162,8.14594012 55.0362396,8.14594012 C58.2233414,8.14594012 61.1234312,8.58342515 63.7969162,9.44329341 L63.7969162,36.2644731 Z M58.8123893,12.671497 C57.679521,12.3245449 56.4107366,12.1585808 55.0362396,12.1585808 C53.344527,12.1585808 52.1361498,12.5960659 51.4564132,13.4860599 C50.7917785,14.3911557 50.4293354,16.1108144 50.4293354,18.6602156 C50.4293354,21.0587545 50.7464731,22.6577545 51.4111079,23.5326467 C52.0757426,24.392515 53.2236348,24.83 54.9154252,24.83 C57.1206767,24.83 58.8123893,23.9249042 58.8123893,22.793515 L58.8123893,12.671497 Z" id="Shape" fill="#000000"></path>
                    <path d="M70.9418564,8.67388024 C72.7091558,13.576515 74.2044671,18.4791497 75.503533,23.4270898 C77.2254492,18.358491 78.6904791,13.4558563 79.8231138,8.67388024 L84.1886228,8.67388024 C85.83503,13.576515 87.2097606,18.4791497 88.312036,23.4270898 C90.276048,18.0567665 91.8165869,13.1391078 92.9492216,8.67388024 L97.8580839,8.67388024 C95.7741917,15.7035329 93.4629941,22.4012575 90.9104791,28.7219042 L85.0495809,28.7219042 C84.3847905,25.1467485 83.3276647,20.8324611 81.9077845,15.6884311 C81.0016767,19.6859701 79.7476049,24.0455629 78.1011977,28.7219042 L72.2409222,28.7219042 C70.2772995,21.4207305 68.147557,14.7532096 65.8818204,8.67388024 L70.9418564,8.67388024 Z" id="Path" fill="#000000"></path>
                    <path d="M103.402156,5.88314611 C101.196826,5.88314611 100.577186,5.34008862 100.577186,3.09241976 C100.577186,1.08610719 101.211617,0.618469162 103.402156,0.618469162 C105.607485,0.618469162 106.226347,1.08610719 106.226347,3.09241976 C106.226347,5.34008862 105.607485,5.88314611 103.402156,5.88314611 Z M100.924371,8.67388024 L105.909521,8.67388024 L105.909521,28.7219042 L100.924371,28.7219042 L100.924371,8.67388024 Z" id="Shape" fill="#000000"></path>
                    <path d="M129.457425,8.67388024 C125.923293,13.6971737 123.446287,16.759491 122.071557,17.8606766 C123.204192,18.5998862 126.24012,22.4917904 130.001557,28.737006 L124.261317,28.737006 C119.578982,21.6319222 117.344072,18.5696826 116.241018,18.1020719 L116.241018,28.737006 L111.256647,28.737006 L111.256647,0 L116.241018,0 L116.241018,18.0869701 C117.373653,17.2573054 119.851437,14.1195569 123.672814,8.67388024 L129.457425,8.67388024 Z" id="Path" fill="#000000"></path>
                    <path d="M31.8951498,40.8955868 L24.9772037,34.0167964 L24.8714911,34.0318982 L24.8714911,33.9564671 L10.159539,19.4295509 L13.7846707,15.9298263 L11.6549282,3.71095509 L1.54990367,16.2315509 C-0.172029627,17.9663114 -0.489225735,20.7872335 0.74935666,22.8689461 L7.06310247,33.337994 C8.02979648,34.9520958 9.78191624,35.917521 11.67003,35.9024192 L14.7967246,35.8722156 L31.8951498,40.8955868 Z" id="Path" fill="#18B6F6"></path>
                    <path d="M35.6707546,15.9900778 L34.2810779,13.4256527 L33.556036,12.1132754 L33.2691019,11.6003593 L33.2388983,11.6305629 L29.4324671,5.03837964 C28.4808983,3.37902695 26.6985749,2.35324132 24.7651558,2.3681634 L21.427036,2.45882934 L11.4730061,2.4890018 C9.58497013,2.50408802 7.86305397,3.4997012 6.91143061,5.11380299 L0.854465941,17.1214671 L11.6845091,3.68072036 L25.8829222,19.2786108 L23.3603773,21.828012 L24.8708683,34.0318204 L24.8859701,34.0016168 L24.8859701,34.0318204 L24.8557665,34.0318204 L24.8859701,34.0619461 L26.0641438,35.2084371 L31.7888144,40.804976 C32.030521,41.0312695 32.4232456,40.7597485 32.257048,40.4731257 L28.7226049,33.5189042 L34.8853055,22.1297365 L35.0816288,21.9034431 C35.1571378,21.8129102 35.2326468,21.7224551 35.2931318,21.6319222 C36.5015091,19.9876168 36.6676288,17.7852455 35.6707546,15.9900778 Z" id="Path" fill="#AC7EF4"></path>
                    <polygon id="Path" fill="#FFFFFF" points="25.9280719 19.2183593 11.6843534 3.69584551 13.7083833 15.8543952 10.0832516 19.3692216 24.8405091 34.0167964 23.5113174 21.8582156"></polygon>
                </g>
                <g id="City" transform="translate(139.538, 1.104)" fill="#000000">
                    <path d="M0,14.832 C0,12.384 0.552,10.182 1.656,8.226 C2.76,6.27 4.266,4.74 6.174,3.636 C8.082,2.532 10.2,1.98 12.528,1.98 C15.264,1.98 17.652,2.64 19.692,3.96 C21.732,5.28 23.22,7.152 24.156,9.576 L20.232,9.576 C19.536,8.064 18.534,6.9 17.226,6.084 C15.918,5.268 14.352,4.86 12.528,4.86 C10.776,4.86 9.204,5.268 7.812,6.084 C6.42,6.9 5.328,8.058 4.536,9.558 C3.744,11.058 3.348,12.816 3.348,14.832 C3.348,16.824 3.744,18.57 4.536,20.07 C5.328,21.57 6.42,22.728 7.812,23.544 C9.204,24.36 10.776,24.768 12.528,24.768 C14.352,24.768 15.918,24.366 17.226,23.562 C18.534,22.758 19.536,21.6 20.232,20.088 L24.156,20.088 C23.22,22.488 21.732,24.342 19.692,25.65 C17.652,26.958 15.264,27.612 12.528,27.612 C10.2,27.612 8.082,27.066 6.174,25.974 C4.266,24.882 2.76,23.364 1.656,21.42 C0.552,19.476 0,17.28 0,14.832 Z" id="Path"></path>
                    <path d="M30.708,4.464 C30.084,4.464 29.556,4.248 29.124,3.816 C28.692,3.384 28.476,2.856 28.476,2.232 C28.476,1.608 28.692,1.08 29.124,0.648 C29.556,0.216 30.084,2.27373675e-13 30.708,2.27373675e-13 C31.308,2.27373675e-13 31.818,0.216 32.238,0.648 C32.658,1.08 32.868,1.608 32.868,2.232 C32.868,2.856 32.658,3.384 32.238,3.816 C31.818,4.248 31.308,4.464 30.708,4.464 Z M32.292,7.668 L32.292,27.396 L29.016,27.396 L29.016,7.668 L32.292,7.668 Z" id="Shape"></path>
                    <path d="M41.868,10.368 L41.868,21.996 C41.868,22.956 42.072,23.634 42.48,24.03 C42.888,24.426 43.596,24.624 44.604,24.624 L47.016,24.624 L47.016,27.396 L44.064,27.396 C42.24,27.396 40.872,26.976 39.96,26.136 C39.048,25.296 38.592,23.916 38.592,21.996 L38.592,10.368 L36.036,10.368 L36.036,7.668 L38.592,7.668 L38.592,2.7 L41.868,2.7 L41.868,7.668 L47.016,7.668 L47.016,10.368 L41.868,10.368 Z" id="Path"></path>
                    <polygon id="Path" points="67.968 7.668 56.088 36.684 52.704 36.684 56.592 27.18 48.636 7.668 52.272 7.668 58.464 23.652 64.584 7.668"></polygon>
                </g>
            </g>
        </g>
    </g>
</svg>