<?xml version="1.0" encoding="UTF-8"?>
<svg width="766px" height="119px" viewBox="0 0 766 119" version="1.1" xmlns="http://www.w3.org/2000/svg" xmlns:xlink="http://www.w3.org/1999/xlink">
    <title>Group 3</title>
    <defs>
        <path d="M0,15 L23.3350113,13.1579442 C23.3350113,13.1579442 31.3154942,11.8420558 36,4.03499437 L19.5179493,0 L0,15 Z" id="path-1"></path>
        <linearGradient x1="105.757966%" y1="-143.877359%" x2="32.286027%" y2="112.41467%" id="linearGradient-3">
            <stop stop-color="#1593F5" offset="0%"></stop>
            <stop stop-color="#0084CE" offset="100%"></stop>
        </linearGradient>
        <path d="M19.7675851,0 C12.8314982,0.351147429 0,1.58032005 0,1.58032005 L55.9211,42.7519646 L68.6660555,46 L88,44.5077017 L31.7321111,3.24803541 C31.7321111,3.24803541 27.2235464,0 20.7211,0 C20.3743112,0 20.114374,0 19.7675851,0 Z" id="path-4"></path>
        <linearGradient x1="85.8810713%" y1="106.913318%" x2="-13.9610581%" y2="-51.7644947%" id="linearGradient-6">
            <stop stop-color="#1593F5" offset="0%"></stop>
            <stop stop-color="#0084CE" offset="100%"></stop>
        </linearGradient>
        <path d="M0,15 L24.0585459,13.4821903 C24.0585459,13.4821903 32.3096673,12.232323 37,4.37501327 L19.8896365,0 L0,15 Z" id="path-7"></path>
        <linearGradient x1="180.667838%" y1="280.47563%" x2="23.8090175%" y2="3.16272529%" id="linearGradient-9">
            <stop stop-color="#FFFFFF" offset="0%"></stop>
            <stop stop-color="#15ABFF" offset="100%"></stop>
        </linearGradient>
        <path d="M20.735275,0 C13.4117617,0.258414878 0,1.29213587 0,1.29213587 L59.293972,42.6406373 L72.7057337,46 L93,44.7941459 L33.3527806,3.35954711 C33.3527806,3.35954711 28.4117211,0 21.4411407,0 C21.2646742,0 20.9998174,0 20.735275,0 Z" id="path-10"></path>
        <linearGradient x1="13.5582439%" y1="-21.8469589%" x2="66.0499047%" y2="81.8526021%" id="linearGradient-12">
            <stop stop-color="#FFFFFF" offset="0%"></stop>
            <stop stop-color="#79CFFF" offset="100%"></stop>
        </linearGradient>
        <path d="M0.0876428198,9.1289689 C0,9.21532318 0,9.30137015 0,9.38741712 L15.5131853,20.4112632 L30.8511162,31.348755 L56.6187301,49.6930471 C65.2955255,55.8076063 77.0399758,53.224046 83,43.7505819 L67.3114666,32.6406888 L51.6229332,21.5307958 L26.1180915,3.27285797 C22.96295,1.03348557 19.4572059,0 15.9513994,0 C9.81624578,0 3.76873499,3.18650369 0.0876428198,9.1289689 Z" id="path-13"></path>
        <linearGradient x1="112.332791%" y1="-32.5506143%" x2="35.1467317%" y2="69.8418005%" id="linearGradient-15">
            <stop stop-color="#0057E5" offset="0%"></stop>
            <stop stop-color="#0084CE" offset="100%"></stop>
        </linearGradient>
        <path d="M0.172935903,9.03936564 C0.172935903,9.1254405 0.0863138196,9.21154608 0,9.29762094 L15.9104113,20.5754552 L31.8211309,31.7670303 L58.2809406,50.5345448 C67.1872937,56.8190541 79.1201793,54.3222073 85,44.93845 L68.9166528,33.4888347 L52.8333055,22.1249256 L26.5464318,3.44354738 C23.2603413,1.11915751 19.5423736,0 15.9104113,0 C9.77103265,0.086074861 3.80458986,3.18529208 0.172935903,9.03936564 Z" id="path-16"></path>
        <linearGradient x1="67.6437155%" y1="5.79320188%" x2="40.6343882%" y2="73.6525935%" id="linearGradient-18">
            <stop stop-color="#FFFFFF" offset="0%"></stop>
            <stop stop-color="#15ABFF" offset="100%"></stop>
        </linearGradient>
        <path d="M0,1.20763691 L20.5548898,23.6377302 C21.5090473,24.9318687 22.5497777,26.1395056 23.7639632,27.1747549 L63.8330123,71 L83.780964,69.7920553 C89.6784364,60.3886179 87.2500654,47.6208513 78.3169746,41.3231618 L51.7777303,22.5162871 L35.9061274,11.3012404 L19.9479516,0 L0,1.20763691 Z" id="path-19"></path>
        <linearGradient x1="95.0774939%" y1="108.534358%" x2="-9.22916355%" y2="-27.2040301%" id="linearGradient-21">
            <stop stop-color="#FFFFFF" offset="0%"></stop>
            <stop stop-color="#79CFFF" offset="100%"></stop>
        </linearGradient>
        <path d="M3.14547735,0.259659492 C-2.63334325,9.60431369 -0.218377998,22.2371648 8.49290042,28.4671401 L34.6270432,47.157066 L50.7560223,58.5783786 L66.798599,70 C72.6638221,60.5685868 70.2485494,47.7625265 61.3647735,41.4461009 L35.0584407,22.6700335 L19.188054,11.3348624 L3.31797487,0 C3.31797487,0.086450247 3.23157237,0.173209245 3.14547735,0.259659492 Z" id="path-22"></path>
        <linearGradient x1="91.9746163%" y1="-32.7580669%" x2="27.8605541%" y2="93.854814%" id="linearGradient-24">
            <stop stop-color="#FFFFFF" offset="0%"></stop>
            <stop stop-color="#79CFFF" offset="100%"></stop>
        </linearGradient>
    </defs>
    <g id="Page-1" stroke="none" stroke-width="1" fill="none" fill-rule="evenodd">
        <g id="A0" transform="translate(-138, -1297)">
            <g id="Group-3" transform="translate(138, 1297)">
                <g id="solid">
                    <g id="Clipped" transform="translate(67, 104)">
                        <mask id="mask-2" fill="white">
                            <use xlink:href="#path-1"></use>
                        </mask>
                        <g id="Path"></g>
                        <polygon id="Path" fill="url(#linearGradient-3)" fill-rule="nonzero" mask="url(#mask-2)" points="38.8624099 0.61412295 34.6120899 22.1052961 -2.94930891 14.3858771 1.38791008 -7.10529611"></polygon>
                    </g>
                    <g id="Clipped" transform="translate(14, 64)">
                        <mask id="mask-5" fill="white">
                            <use xlink:href="#path-4"></use>
                        </mask>
                        <g id="Path"></g>
                        <polygon id="Path" fill="url(#linearGradient-6)" fill-rule="nonzero" mask="url(#mask-5)" points="24.6226296 86.0301805 -20.4611011 12.9047463 63.2905186 -40.0301805 108.460854 33.0952537"></polygon>
                    </g>
                    <g id="Clipped" transform="translate(106, 41)">
                        <mask id="mask-8" fill="white">
                            <use xlink:href="#path-7"></use>
                        </mask>
                        <g id="Path"></g>
                        <polygon id="Path" fill="url(#linearGradient-9)" fill-rule="nonzero" mask="url(#mask-8)" points="8.77223505 31.1609779 -6.25367376 3.48229647 28.2274553 -16.2501858 43.2533641 11.4288142"></polygon>
                    </g>
                    <g id="Clipped" transform="translate(51, 0)">
                        <mask id="mask-11" fill="white">
                            <use xlink:href="#path-10"></use>
                        </mask>
                        <g id="Path"></g>
                        <polygon id="Path" fill="url(#linearGradient-12)" fill-rule="nonzero" mask="url(#mask-11)" points="78.0881165 -33.2510204 110.294023 38.6778865 14.9115689 79.3372714 -17.2943373 7.40824154"></polygon>
                    </g>
                    <g id="Clipped" transform="translate(0, 66)">
                        <mask id="mask-14" fill="white">
                            <use xlink:href="#path-13"></use>
                        </mask>
                        <g id="Path"></g>
                        <polygon id="Path" fill="url(#linearGradient-15)" fill-rule="nonzero" mask="url(#mask-14)" points="109.994613 19.1193294 54.5153024 94.5628542 -26.9946446 36.6882768 28.3971172 -38.755248"></polygon>
                    </g>
                    <g id="Clipped" transform="translate(37, 1)">
                        <mask id="mask-17" fill="white">
                            <use xlink:href="#path-16"></use>
                        </mask>
                        <g id="Path"></g>
                        <polygon id="Path" fill="url(#linearGradient-18)" fill-rule="nonzero" mask="url(#mask-17)" points="103.2452 6.62887018 75.1426535 83.9369359 -18.2452002 50.1901839 9.94396855 -27.1181276"></polygon>
                    </g>
                    <g id="Clipped" transform="translate(26, 22)">
                        <mask id="mask-20" fill="white">
                            <use xlink:href="#path-19"></use>
                        </mask>
                        <g id="Path"></g>
                        <polygon id="Path" fill="url(#linearGradient-21)" fill-rule="nonzero" mask="url(#mask-20)" points="32.7839361 114.048577 -34.4316882 25.967118 56.9813824 -42.9625066 124.11035 45.1190758"></polygon>
                    </g>
                    <g id="Clipped" transform="translate(23, 23)">
                        <mask id="mask-23" fill="white">
                            <use xlink:href="#path-22"></use>
                        </mask>
                        <g id="Path"></g>
                        <polygon id="Path" fill="url(#linearGradient-24)" fill-rule="nonzero" mask="url(#mask-23)" points="100.867935 14.3633998 57.310928 100.543799 -30.751146 55.8095007 12.8056459 -30.4573174"></polygon>
                    </g>
                </g>
                <g id="SolidStart" transform="translate(174.6015, 13.524)" fill="#000000" fill-rule="nonzero">
                    <path d="M38.1268125,93.492 C30.4329375,93.492 23.8225312,92.19 18.2955937,89.586 C12.7686562,86.982 8.4511875,83.328 5.3431875,78.624 C2.2351875,73.92 0.454125,68.3930625 0,62.0431875 L19.278,61.0588125 C19.7649375,64.603875 20.7896719,67.6154063 22.3522031,70.0934063 C23.9147344,72.5714063 26.019,74.4446719 28.665,75.7132031 C31.311,76.9817344 34.5489375,77.616 38.3788125,77.616 C41.5708125,77.616 44.2840781,77.2337344 46.5186094,76.4692031 C48.7531406,75.7046719 50.4584062,74.5496719 51.6344062,73.0042031 C52.8104062,71.4587344 53.3984062,69.552 53.3984062,67.284 C53.3984062,65.218125 52.8986719,63.391125 51.8992031,61.803 C50.8997344,60.214875 48.9762656,58.7698125 46.1287969,57.4678125 C43.2813281,56.1658125 39.0685312,54.8848125 33.4904062,53.6248125 C25.8464062,51.912 19.6976719,49.9678594 15.0442031,47.7923906 C10.3907344,45.6169219 7.00973437,42.8659219 4.90120312,39.5393906 C2.79267187,36.2128594 1.73840625,32.0210625 1.73840625,26.964 C1.73840625,21.622125 3.07420312,16.9266563 5.74579687,12.8775938 C8.41739062,8.82853125 12.256125,5.67 17.262,3.402 C22.267875,1.134 28.2653437,0 35.2544062,0 C42.6634687,0 48.9214687,1.302 54.0284062,3.906 C59.1353438,6.51 63.1378125,10.08 66.0358125,14.616 C68.9338125,19.152 70.693875,24.3770625 71.316,30.2911875 L52.1895937,31.1968125 C51.8864062,28.0888125 51.0208125,25.3926094 49.5928125,23.1082031 C48.1648125,20.8237969 46.2370781,19.0473281 43.8096094,17.7787969 C41.3821406,16.5102656 38.4464062,15.876 35.0024062,15.876 C30.6685313,15.876 27.2665312,16.8334688 24.7964062,18.7484063 C22.3262812,20.6633437 21.0912187,23.1833438 21.0912187,26.3084063 C21.0912187,28.5265313 21.6414844,30.3748594 22.7420156,31.8533906 C23.8425469,33.3319219 25.732875,34.600125 28.413,35.658 C31.093125,36.715875 34.852125,37.765875 39.69,38.808 C47.971875,40.453875 54.5320781,42.5706094 59.3706094,45.1582031 C64.2091406,47.7457969 67.648875,50.7950625 69.6898125,54.306 C71.73075,57.8169375 72.7512187,61.8404063 72.7512187,66.3764063 C72.7512187,71.9374688 71.3442187,76.755 68.5302187,80.829 C65.7162187,84.903 61.7180156,88.032 56.5356094,90.216 C51.3532031,92.4 45.2169375,93.492 38.1268125,93.492 Z" id="Path"></path>
                    <path d="M119.120618,92.988 C112.232618,92.988 106.213822,91.5347344 101.064228,88.6282031 C95.914634,85.7216719 91.9161028,81.6181406 89.068634,76.3176094 C86.2211653,71.0170781 84.7974309,64.813875 84.7974309,57.708 C84.7974309,50.568 86.2211653,44.3687344 89.068634,39.1102031 C91.9161028,33.8516719 95.914634,29.7566719 101.064228,26.8252031 C106.213822,23.8937344 112.232618,22.428 119.120618,22.428 C126.008618,22.428 132.018556,23.8937344 137.150431,26.8252031 C142.282306,29.7566719 146.272306,33.8516719 149.120431,39.1102031 C151.968556,44.3687344 153.392618,50.568 153.392618,57.708 C153.392618,64.813875 151.968556,71.0170781 149.120431,76.3176094 C146.272306,81.6181406 142.282306,85.7216719 137.150431,88.6282031 C132.018556,91.5347344 126.008618,92.988 119.120618,92.988 Z M119.120618,78.4468125 C123.841681,78.4468125 127.48715,76.6326094 130.057025,73.0042031 C132.6269,69.3757969 133.911837,64.2770625 133.911837,57.708 C133.911837,51.190125 132.6269,46.1041875 130.057025,42.4501875 C127.48715,38.7961875 123.841681,36.9691875 119.120618,36.9691875 C114.399556,36.9691875 110.745228,38.7961875 108.157634,42.4501875 C105.57004,46.1041875 104.276243,51.190125 104.276243,57.708 C104.276243,64.2770625 105.57004,69.3757969 108.157634,73.0042031 C110.745228,76.6326094 114.399556,78.4468125 119.120618,78.4468125 Z" id="Shape"></path>
                    <path d="M183.303606,91.476 C177.827856,91.476 173.518919,90.09 170.376794,87.318 C167.234669,84.546 165.663606,80.0690625 165.663606,73.8871875 L165.663606,2.016 L184.563606,2.016 L184.563606,71.8711875 C184.563606,73.82025 185.034138,75.22725 185.9752,76.0921875 C186.916263,76.957125 188.260263,77.3895938 190.0072,77.3895938 L194.517606,77.3895938 L194.517606,91.476 L183.303606,91.476 Z" id="Path"></path>
                    <path d="M204.09416,91.476 L204.09416,23.94 L222.99416,23.94 L222.99416,91.476 L204.09416,91.476 Z M203.71616,15.624 L203.71616,0.504 L223.24616,0.504 L223.24616,15.624 L203.71616,15.624 Z" id="Shape"></path>
                    <path d="M262.279982,92.988 C256.585044,92.988 251.667107,91.5475313 247.526169,88.6665938 C243.385232,85.7856563 240.193232,81.703125 237.950169,76.419 C235.707107,71.134875 234.585576,64.897875 234.585576,57.708 C234.585576,50.518125 235.719576,44.281125 237.987576,38.997 C240.255576,33.712875 243.472841,29.6303438 247.639373,26.7494062 C251.805904,23.8684688 256.686107,22.428 262.279982,22.428 C267.085044,22.428 271.234841,23.4107344 274.729373,25.3762031 C278.223904,27.3416719 280.870232,30.072 282.668357,33.5671875 L282.668357,2.016 L301.566388,2.016 L301.566388,91.476 L283.447982,91.476 L283.069982,81.5475938 C281.221982,85.1595938 278.470982,87.9693281 274.816982,89.9767969 C271.162982,91.9842656 266.983982,92.988 262.279982,92.988 Z M268.505169,78.4468125 C271.546232,78.4468125 274.116763,77.665875 276.216763,76.104 C278.316763,74.542125 279.917029,72.2196563 281.01756,69.1365938 C282.118091,66.0535313 282.668357,62.244 282.668357,57.708 C282.668357,53.1050625 282.118091,49.2705938 281.01756,46.2045938 C279.917029,43.1385938 278.316763,40.8328594 276.216763,39.2873906 C274.116763,37.7419219 271.546232,36.9691875 268.505169,36.9691875 C264.087294,36.9691875 260.576029,38.821125 257.971373,42.525 C255.366716,46.228875 254.064388,51.289875 254.064388,57.708 C254.064388,63.9909375 255.379185,69.0181406 258.008779,72.7896094 C260.638373,76.5610781 264.137169,78.4468125 268.505169,78.4468125 Z" id="Shape"></path>
                    <path d="M352.168969,93.492 C345.280969,93.492 339.274969,92.19 334.150969,89.586 C329.026969,86.982 324.973969,83.391 321.991969,78.813 C319.009969,74.235 317.266969,68.922 316.762969,62.874 L328.102969,62.118 C328.690969,66.57 329.992969,70.35 332.008969,73.458 C334.024969,76.566 336.733969,78.918 340.135969,80.514 C343.537969,82.11 347.632969,82.908 352.420969,82.908 C356.620969,82.908 360.190969,82.362 363.130969,81.27 C366.070969,80.178 368.317969,78.582 369.871969,76.482 C371.425969,74.382 372.202969,71.82 372.202969,68.796 C372.202969,66.024 371.551969,63.567 370.249969,61.425 C368.947969,59.283 366.469969,57.309 362.815969,55.503 C359.161969,53.697 353.764969,51.912 346.624969,50.148 C339.736969,48.384 334.255969,46.452 330.181969,44.352 C326.107969,42.252 323.167969,39.69 321.361969,36.666 C319.555969,33.642 318.652969,29.904 318.652969,25.452 C318.652969,20.412 319.849969,15.981 322.243969,12.159 C324.637969,8.337 328.060969,5.355 332.512969,3.213 C336.964969,1.071 342.256969,0 348.388969,0 C354.940969,0 360.568969,1.239 365.272969,3.717 C369.976969,6.195 373.714969,9.576 376.486969,13.86 C379.258969,18.144 380.980969,23.016 381.652969,28.476 L370.312969,29.232 C369.808969,25.62 368.653969,22.407 366.847969,19.593 C365.041969,16.779 362.584969,14.574 359.476969,12.978 C356.368969,11.382 352.588969,10.584 348.136969,10.584 C342.592969,10.584 338.182969,11.907 334.906969,14.553 C331.630969,17.199 329.992969,20.664 329.992969,24.948 C329.992969,27.72 330.643969,30.009 331.945969,31.815 C333.247969,33.621 335.578969,35.217 338.938969,36.603 C342.298969,37.989 347.128969,39.48 353.428969,41.076 C360.904969,42.924 366.847969,45.129 371.257969,47.691 C375.667969,50.253 378.817969,53.214 380.707969,56.574 C382.597969,59.934 383.542969,63.756 383.542969,68.04 C383.542969,73.248 382.198969,77.763 379.510969,81.585 C376.822969,85.407 373.126969,88.347 368.422969,90.405 C363.718969,92.463 358.300969,93.492 352.168969,93.492 Z" id="Path"></path>
                    <path d="M421.972969,91.476 C415.924969,91.476 411.451969,90.09 408.553969,87.318 C405.655969,84.546 404.206969,80.22 404.206969,74.34 L404.206969,9.072 L414.790969,9.072 L414.790969,74.088 C414.790969,77.112 415.462969,79.212 416.806969,80.388 C418.150969,81.564 420.208969,82.152 422.980969,82.152 L432.556969,82.152 L432.556969,91.476 L421.972969,91.476 Z M394.378969,34.02 L394.378969,24.696 L432.556969,24.696 L432.556969,34.02 L394.378969,34.02 Z" id="Shape"></path>
                    <path d="M463.678969,92.988 C456.790969,92.988 451.309969,91.392 447.235969,88.2 C443.161969,85.008 441.124969,80.556 441.124969,74.844 C441.124969,69.132 442.804969,64.638 446.164969,61.362 C449.524969,58.086 454.858969,55.776 462.166969,54.432 L485.854969,50.022 C485.854969,44.394 484.531969,40.194 481.885969,37.422 C479.239969,34.65 475.270969,33.264 469.978969,33.264 C465.358969,33.264 461.704969,34.293 459.016969,36.351 C456.328969,38.409 454.480969,41.37 453.472969,45.234 L442.258969,44.352 C443.518969,38.052 446.563969,32.949 451.393969,29.043 C456.223969,25.137 462.418969,23.184 469.978969,23.184 C478.546969,23.184 485.098969,25.599 489.634969,30.429 C494.170969,35.259 496.438969,41.916 496.438969,50.4 L496.438969,77.994 C496.438969,79.506 496.711969,80.577 497.257969,81.207 C497.803969,81.837 498.706969,82.152 499.966969,82.152 L502.612969,82.152 L502.612969,91.476 C502.276969,91.56 501.730969,91.623 500.974969,91.665 C500.218969,91.707 499.420969,91.728 498.580969,91.728 C495.556969,91.728 493.099969,91.245 491.209969,90.279 C489.319969,89.313 487.954969,87.801 487.114969,85.743 C486.274969,83.685 485.854969,80.976 485.854969,77.616 L487.114969,77.868 C486.526969,80.724 485.098969,83.307 482.830969,85.617 C480.562969,87.927 477.748969,89.733 474.388969,91.035 C471.028969,92.337 467.458969,92.988 463.678969,92.988 Z M464.686969,83.664 C469.138969,83.664 472.939969,82.803 476.089969,81.081 C479.239969,79.359 481.654969,77.007 483.334969,74.025 C485.014969,71.043 485.854969,67.704 485.854969,64.008 L485.854969,59.22 L464.182969,63.252 C459.646969,64.092 456.517969,65.373 454.795969,67.095 C453.073969,68.817 452.212969,71.064 452.212969,73.836 C452.212969,76.944 453.325969,79.359 455.551969,81.081 C457.777969,82.803 460.822969,83.664 464.686969,83.664 Z" id="Shape"></path>
                    <path d="M514.582969,91.476 L514.582969,24.696 L523.906969,24.696 L524.410969,41.58 L523.402969,41.202 C524.242969,35.49 526.069969,31.311 528.883969,28.665 C531.697969,26.019 535.456969,24.696 540.160969,24.696 L546.712969,24.696 L546.712969,34.776 L540.286969,34.776 C536.926969,34.776 534.133969,35.385 531.907969,36.603 C529.681969,37.821 528.001969,39.627 526.867969,42.021 C525.733969,44.415 525.166969,47.46 525.166969,51.156 L525.166969,91.476 L514.582969,91.476 Z" id="Path"></path>
                    <path d="M580.480969,91.476 C574.432969,91.476 569.959969,90.09 567.061969,87.318 C564.163969,84.546 562.714969,80.22 562.714969,74.34 L562.714969,9.072 L573.298969,9.072 L573.298969,74.088 C573.298969,77.112 573.970969,79.212 575.314969,80.388 C576.658969,81.564 578.716969,82.152 581.488969,82.152 L591.064969,82.152 L591.064969,91.476 L580.480969,91.476 Z M552.886969,34.02 L552.886969,24.696 L591.064969,24.696 L591.064969,34.02 L552.886969,34.02 Z" id="Shape"></path>
                </g>
            </g>
        </g>
    </g>
</svg>