<?xml version="1.0" encoding="UTF-8"?>
<svg width="835px" height="178px" viewBox="0 0 835 178" version="1.1" xmlns="http://www.w3.org/2000/svg" xmlns:xlink="http://www.w3.org/1999/xlink">
    <title>Group</title>
    <g id="Page-1" stroke="none" stroke-width="1" fill="none" fill-rule="evenodd">
        <g id="A0" transform="translate(-157, -713)" fill-rule="nonzero">
            <g id="Group" transform="translate(157, 713)">
                <g id="sveltekit">
                    <path d="M138.192881,23.4990768 C146.092881,34.5990768 149.192881,48.2990768 146.792881,61.6990768 C145.692881,67.9990768 143.192881,73.9990768 139.692881,79.3990768 C144.892881,89.1990768 146.592881,100.499077 144.592881,111.399077 C142.192881,124.499077 134.492881,135.999077 123.192881,143.099077 L81.8928806,169.399077 C58.3928806,184.399077 25.7928806,177.399077 9.39288063,153.799077 C1.49288063,142.899077 -1.60711937,129.099077 0.792880629,115.699077 C1.89288063,109.399077 4.39288063,103.399077 7.89288063,97.9990768 C2.69288063,88.1990768 0.992880629,76.8990768 2.99288063,65.9990768 C5.39288063,52.8990768 13.0928806,41.2990768 24.3928806,34.2990768 L65.6928806,7.89907679 C89.1928806,-7.10092321 121.692881,-0.100923206 138.192881,23.4990768" id="Path" fill="#FF3E00"></path>
                    <path d="M61.5928806,156.199077 C64.5928806,155.399077 67.3928806,154.199077 69.9928806,152.499077 L111.292881,126.199077 C118.092881,121.899077 122.792881,114.999077 124.192881,107.099077 C125.592881,99.0990768 123.792881,90.7990768 118.992881,84.0990768 C111.192881,72.7990768 97.0928806,67.5990768 83.7928806,70.9990768 C80.7928806,71.7990768 77.9928806,72.9990768 75.3928806,74.6990768 L59.5928806,84.6990768 C58.7928806,85.1990768 57.9928806,85.5990768 57.0928806,85.7990768 C53.0928806,86.7990768 48.7928806,85.2990768 46.4928806,81.8990768 C45.0928806,79.8990768 44.4928806,77.3990768 44.8928806,74.9990768 C45.2928806,72.5990768 46.6928806,70.4990768 48.7928806,69.2990768 L90.0928806,42.9990768 C90.8928806,42.4990768 91.6928806,42.0990768 92.5928806,41.8990768 C96.5928806,40.8990768 100.892881,42.3990768 103.192881,45.7990768 C104.492881,47.5990768 105.092881,49.7990768 104.892881,51.8990768 L104.892881,53.3990768 C104.792881,53.3990768 106.292881,53.8990768 106.292881,53.8990768 C112.092881,55.6990768 117.592881,58.3990768 122.492881,61.9990768 L124.592881,63.5990768 L125.392881,61.1990768 C125.792881,59.8990768 126.092881,58.5990768 126.392881,57.2990768 C127.792881,49.2990768 125.992881,40.9990768 121.192881,34.2990768 C113.392881,22.9990768 99.2928806,17.7990768 85.9928806,21.1990768 C82.9928806,21.9990768 80.1928806,23.1990768 77.5928806,24.8990768 L36.2928806,51.1990768 C29.4928806,55.4990768 24.7928806,62.3990768 23.3928806,70.2990768 C21.9928806,78.2990768 23.7928806,86.5990768 28.5928806,93.2990768 C36.3928806,104.599077 50.4928806,109.799077 63.7928806,106.399077 C66.7928806,105.599077 69.5928806,104.399077 72.1928806,102.699077 L87.9928806,92.5990768 C88.7928806,92.0990768 89.5928806,91.6990768 90.4928806,91.4990768 C94.4928806,90.4990768 98.7928806,91.9990768 101.092881,95.3990768 C102.492881,97.3990768 103.092881,99.8990768 102.692881,102.299077 C102.292881,104.699077 100.892881,106.799077 98.7928806,108.099077 L57.4928806,134.399077 C56.6928806,134.899077 55.8928806,135.299077 54.9928806,135.499077 C50.9928806,136.499077 46.6928806,134.999077 44.3928806,131.599077 C43.0928806,129.799077 42.4928806,127.599077 42.6928806,125.499077 L42.6928806,123.999077 C42.7928806,123.999077 41.2928806,123.499077 41.2928806,123.499077 C35.4928806,121.699077 29.9928806,118.999077 25.0928806,115.399077 L22.9928806,113.799077 L22.1928806,116.199077 C21.7928806,117.499077 21.4928806,118.799077 21.1928806,120.099077 C19.7928806,128.099077 21.5928806,136.399077 26.3928806,143.099077 C34.1928806,154.399077 48.2928806,159.599077 61.5928806,156.199077" id="Path" fill="#FFFFFF"></path>
                    <path d="M241.992881,127.899077 C235.792881,128.099077 229.692881,126.299077 224.592881,122.999077 C219.792881,119.799077 216.192881,114.999077 214.392881,109.499077 L224.992881,105.599077 C226.492881,108.999077 228.892881,111.899077 231.892881,113.999077 C234.992881,116.099077 238.692881,117.199077 242.392881,117.099077 C245.992881,117.299077 249.492881,116.199077 252.392881,114.099077 C254.892881,111.999077 256.292881,108.699077 256.092881,105.399077 C256.092881,103.899077 255.792881,102.399077 255.092881,100.999077 C254.492881,99.7990768 253.692881,98.6990768 252.792881,97.6990768 C251.592881,96.5990768 250.292881,95.6990768 248.792881,94.9990768 C246.992881,94.0990768 245.492881,93.3990768 244.292881,92.8990768 C243.092881,92.3990768 241.392881,91.7990768 238.992881,90.9990768 C236.092881,89.9990768 233.892881,89.1990768 232.492881,88.5990768 C230.492881,87.7990768 228.592881,86.7990768 226.792881,85.6990768 C224.792881,84.6990768 222.992881,83.2990768 221.492881,81.6990768 C220.192881,80.0990768 219.092881,78.3990768 218.292881,76.3990768 C215.192881,68.8990768 217.292881,60.2990768 223.392881,55.0990768 C227.692881,51.2990768 233.592881,49.3990768 241.092881,49.3990768 C247.292881,49.3990768 252.392881,50.7990768 256.392881,53.4990768 C260.292881,56.0990768 263.092881,59.9990768 264.492881,64.3990768 L254.092881,67.8990768 C253.092881,65.5990768 251.292881,63.5990768 249.092881,62.2990768 C246.392881,60.7990768 243.392881,60.0990768 240.292881,60.1990768 C237.292881,59.9990768 234.292881,60.8990768 231.792881,62.5990768 C229.692881,64.1990768 228.592881,66.6990768 228.692881,69.2990768 C228.692881,71.2990768 229.592881,73.1990768 231.092881,74.4990768 C232.492881,75.8990768 234.192881,77.0990768 236.092881,77.8990768 C237.792881,78.5990768 240.492881,79.5990768 243.992881,80.7990768 C246.192881,81.5990768 247.792881,82.1990768 248.792881,82.5990768 C249.792881,82.9990768 251.392881,83.6990768 253.392881,84.5990768 C254.992881,85.2990768 256.592881,86.1990768 258.092881,87.0990768 C259.392881,88.0990768 260.692881,89.0990768 261.892881,90.1990768 C263.192881,91.2990768 264.292881,92.6990768 265.192881,94.1990768 C265.992881,95.6990768 266.692881,97.3990768 267.092881,99.0990768 C267.692881,101.099077 267.892881,103.199077 267.892881,105.199077 C267.892881,112.299077 265.492881,117.799077 260.592881,121.799077 C255.792881,125.799077 249.492881,127.799077 241.992881,127.799077 L241.992881,127.899077 Z M311.392881,126.599077 L285.392881,50.7990768 L297.492881,50.7990768 L314.692881,103.699077 C315.692881,106.499077 316.392881,109.399077 317.092881,112.399077 C317.692881,109.499077 318.492881,106.599077 319.492881,103.699077 L336.492881,50.7990768 L348.492881,50.7990768 L322.592881,126.599077 L311.292881,126.599077 L311.392881,126.599077 Z M371.592881,126.599077 L371.592881,50.7990768 L418.592881,50.7990768 L418.592881,61.3990768 L382.792881,61.3990768 L382.792881,82.1990768 L405.892881,82.1990768 L405.892881,92.7990768 L382.792881,92.7990768 L382.792881,115.999077 L420.892881,115.999077 L420.892881,126.599077 L371.492881,126.599077 L371.592881,126.599077 Z M449.692881,126.599077 L449.692881,50.7990768 L460.992881,50.7990768 L460.992881,115.799077 L498.092881,115.799077 L498.092881,126.599077 L449.792881,126.599077 L449.692881,126.599077 Z M540.492881,61.5990768 L540.492881,126.599077 L529.192881,126.599077 L529.192881,61.5990768 L507.692881,61.5990768 L507.692881,50.7990768 L561.892881,50.7990768 L561.892881,61.5990768 L540.392881,61.5990768 L540.492881,61.5990768 Z M585.192881,126.599077 L585.192881,50.7990768 L632.192881,50.7990768 L632.192881,61.3990768 L596.392881,61.3990768 L596.392881,82.1990768 L619.492881,82.1990768 L619.492881,92.7990768 L596.392881,92.7990768 L596.392881,115.999077 L634.492881,115.999077 L634.492881,126.599077 L585.092881,126.599077 L585.192881,126.599077 Z" id="Shape" fill="#4A4A55"></path>
                </g>
                <g id="KIT" transform="translate(657.4834, 50.9297)" fill="#A9AEB5">
                    <polygon id="Path" points="19.3310547 40.699707 10.03125 50.3652344 10.03125 76.0703125 1.13686838e-13 76.0703125 1.13686838e-13 0 10.03125 0 10.03125 37.6171875 43.8344727 0 55.9555664 0 26.0185547 33.5942383 58.3066406 76.0703125 46.2900391 76.0703125"></polygon>
                    <polygon id="Path" points="92.9059389 76.0703125 82.8746889 76.0703125 82.8746889 0 92.9059389 0"></polygon>
                    <polygon id="Path" points="177.348011 8.25488281 152.896839 8.25488281 152.896839 76.0703125 142.917835 76.0703125 142.917835 8.25488281 118.518909 8.25488281 118.518909 0 177.348011 0"></polygon>
                </g>
            </g>
        </g>
    </g>
</svg>